<?xml version="1.0" encoding="iso-8859-1"?>
<!-- Generator: Adobe Illustrator 19.0.0, SVG Export Plug-In . SVG Version: 6.00 Build 0)  -->
<svg version="1.1" id="Layer_1" xmlns="http://www.w3.org/2000/svg" xmlns:xlink="http://www.w3.org/1999/xlink" x="0px" y="0px"
	 viewBox="0 0 512 512" style="enable-background:new 0 0 512 512;" xml:space="preserve">
<polyline style="fill:#EDD154;" points="300.997,74.927 300.997,35.455 211.003,35.455 211.003,74.927 "/>
<polyline style="fill:#D6B31D;" points="240.005,74.927 240.005,35.455 211.003,35.455 211.003,74.927 "/>
<rect x="194.603" style="fill:#EDD154;" width="122.805" height="35.456"/>
<rect x="194.603" style="fill:#D6B31D;" width="35.456" height="35.456"/>
<path style="fill:#E6E6E6;" d="M447.792,285.887c0,72.715-40.459,135.979-100.096,168.501
	c-27.232,14.859-58.475,23.296-91.691,23.296c-105.931,0-191.797-85.867-191.797-191.797c0-72.384,40.107-135.413,99.307-168.064
	c27.424-15.125,58.955-23.733,92.491-23.733C361.925,94.09,447.792,179.967,447.792,285.887z"/>
<path style="fill:#CCCCCC;" d="M347.696,454.388c-27.232,14.859-58.475,23.296-91.691,23.296
	c-105.931,0-191.797-85.867-191.797-191.797c0-72.384,40.107-135.413,99.307-168.064
	C139.728,187.455,95.312,389.012,347.696,454.388z"/>
<g>
	<path style="fill:#EDD154;" d="M274.165,275.724c-2.047,0-4.095-0.781-5.658-2.343c-3.124-3.124-3.124-8.19,0-11.313l67.818-67.818
		c3.125-3.124,8.19-3.124,11.314,0c3.124,3.124,3.124,8.19,0,11.313l-67.818,67.818C278.26,274.943,276.212,275.724,274.165,275.724
		z"/>
	<circle style="fill:#EDD154;" cx="256" cy="285.888" r="25.685"/>
</g>
<g>
	<path style="fill:#3B4773;" d="M256.002,127.609c-4.419,0-8-3.582-8-8V94.094c0-4.418,3.581-8,8-8c4.419,0,8,3.582,8,8v25.515
		C264.002,124.027,260.421,127.609,256.002,127.609z"/>
	<path style="fill:#3B4773;" d="M256.002,485.682c-4.419,0-8-3.582-8-8v-25.515c0-4.418,3.581-8,8-8c4.419,0,8,3.582,8,8v25.515
		C264.002,482.1,260.421,485.682,256.002,485.682z"/>
	<path style="fill:#3B4773;" d="M192.373,140.268c-3.139,0-6.117-1.86-7.394-4.941l-9.764-23.573
		c-1.692-4.082,0.246-8.762,4.33-10.452c4.082-1.691,8.762,0.247,10.452,4.33l9.764,23.573c1.692,4.082-0.246,8.762-4.33,10.452
		C194.43,140.071,193.393,140.268,192.373,140.268z"/>
	<path style="fill:#3B4773;" d="M329.402,471.085c-3.139,0-6.117-1.859-7.394-4.941l-9.763-23.573
		c-1.692-4.082,0.246-8.762,4.33-10.452c4.083-1.69,8.762,0.247,10.452,4.33l9.763,23.573c1.692,4.082-0.246,8.762-4.33,10.452
		C331.458,470.887,330.421,471.085,329.402,471.085z"/>
	<path style="fill:#3B4773;" d="M138.426,176.31c-2.048,0-4.095-0.781-5.658-2.343l-18.042-18.043
		c-3.124-3.124-3.124-8.19,0.001-11.313c3.123-3.125,8.189-3.124,11.313,0l18.042,18.043c3.124,3.124,3.124,8.19-0.001,11.313
		C142.519,175.53,140.471,176.31,138.426,176.31z"/>
	<path style="fill:#3B4773;" d="M391.621,429.506c-2.047,0-4.095-0.781-5.658-2.343l-18.042-18.042
		c-3.124-3.124-3.124-8.19,0-11.313c3.125-3.124,8.19-3.124,11.314,0l18.042,18.042c3.124,3.124,3.124,8.19,0,11.313
		C395.715,428.725,393.668,429.506,391.621,429.506z"/>
	<path style="fill:#3B4773;" d="M102.378,230.257c-1.021,0-2.058-0.196-3.058-0.611l-23.573-9.764
		c-4.082-1.691-6.021-6.371-4.33-10.452c1.692-4.081,6.373-6.019,10.452-4.33l23.573,9.764c4.082,1.691,6.021,6.371,4.33,10.452
		C108.495,228.397,105.517,230.257,102.378,230.257z"/>
	<path style="fill:#3B4773;" d="M433.194,367.286c-1.021,0-2.058-0.196-3.058-0.611l-23.573-9.764
		c-4.082-1.691-6.021-6.371-4.33-10.452c1.692-4.082,6.373-6.019,10.452-4.33l23.573,9.764c4.082,1.691,6.021,6.371,4.33,10.452
		C439.312,365.426,436.334,367.286,433.194,367.286z"/>
	<path style="fill:#3B4773;" d="M97.677,304.704H73.382c-4.419,0-8-3.582-8-8c0-4.418,3.581-8,8-8h24.294c4.419,0,8,3.582,8,8
		C105.677,301.122,102.096,304.704,97.677,304.704z"/>
	<path style="fill:#3B4773;" d="M447.796,293.887h-25.515c-4.419,0-8-3.582-8-8s3.581-8,8-8h25.515c4.419,0,8,3.582,8,8
		S452.214,293.887,447.796,293.887z"/>
	<path style="fill:#3B4773;" d="M78.811,367.286c-3.139,0-6.117-1.86-7.394-4.941c-1.692-4.082,0.246-8.762,4.33-10.452
		l23.573-9.764c4.083-1.692,8.762,0.247,10.452,4.33c1.692,4.082-0.246,8.762-4.33,10.452l-23.573,9.764
		C80.868,367.089,79.83,367.286,78.811,367.286z"/>
	<path style="fill:#3B4773;" d="M409.627,230.257c-3.139,0-6.117-1.86-7.394-4.941c-1.692-4.082,0.246-8.762,4.33-10.452
		l23.573-9.764c4.083-1.692,8.762,0.249,10.452,4.33c1.692,4.082-0.246,8.762-4.33,10.452l-23.573,9.764
		C411.684,230.061,410.647,230.257,409.627,230.257z"/>
	<path style="fill:#3B4773;" d="M120.383,429.506c-2.047,0-4.095-0.781-5.658-2.343c-3.124-3.124-3.124-8.19,0-11.313l18.042-18.042
		c3.125-3.124,8.19-3.124,11.314,0c3.124,3.124,3.124,8.19,0,11.313l-18.042,18.042C124.478,428.725,122.43,429.506,120.383,429.506
		z"/>
	<path style="fill:#3B4773;" d="M373.58,176.31c-2.047,0-4.095-0.781-5.657-2.343c-3.125-3.124-3.125-8.189-0.001-11.313
		l18.042-18.043c3.125-3.124,8.191-3.125,11.313,0c3.125,3.124,3.125,8.189,0.001,11.313l-18.042,18.043
		C377.674,175.53,375.627,176.31,373.58,176.31z"/>
	<path style="fill:#3B4773;" d="M182.603,471.085c-1.021,0-2.058-0.196-3.058-0.611c-4.082-1.691-6.021-6.371-4.33-10.452
		l9.764-23.573c1.692-4.082,6.373-6.019,10.452-4.33c4.082,1.691,6.021,6.371,4.33,10.452l-9.764,23.573
		C188.72,469.225,185.742,471.085,182.603,471.085z"/>
	<path style="fill:#3B4773;" d="M319.631,140.268c-1.02,0-2.058-0.196-3.058-0.611c-4.082-1.691-6.021-6.37-4.33-10.452
		l9.763-23.573c1.691-4.082,6.369-6.02,10.452-4.33c4.082,1.691,6.021,6.37,4.33,10.452l-9.763,23.573
		C325.749,138.407,322.771,140.268,319.631,140.268z"/>
</g>
<g>
	<path style="fill:#49618C;" d="M295.469,374.154h-78.933c-4.419,0-8-3.582-8-8c0-4.418,3.581-8,8-8h78.933c4.419,0,8,3.582,8,8
		C303.469,370.572,299.888,374.154,295.469,374.154z"/>
	<path style="fill:#49618C;" d="M256,59.775c-124.878,0-226.112,101.234-226.112,226.112S131.121,512,256,512
		s226.112-101.234,226.112-226.112S380.879,59.775,256,59.775z M347.694,454.388c-27.232,14.859-58.475,23.296-91.691,23.296
		c-105.931,0-191.797-85.867-191.797-191.797c0-72.384,40.107-135.413,99.307-168.064c27.424-15.125,58.955-23.733,92.491-23.733
		c105.92,0,191.787,85.877,191.787,191.797C447.79,358.602,407.331,421.866,347.694,454.388z"/>
</g>
<g>
</g>
<g>
</g>
<g>
</g>
<g>
</g>
<g>
</g>
<g>
</g>
<g>
</g>
<g>
</g>
<g>
</g>
<g>
</g>
<g>
</g>
<g>
</g>
<g>
</g>
<g>
</g>
<g>
</g>
</svg>
