<svg id="Flat" height="512" viewBox="0 0 512 512" width="512" xmlns="http://www.w3.org/2000/svg"><path d="m224 24h240v400h-240z" fill="#155384"/><path d="m400 352h-112a8 8 0 0 1 0-16h112a8 8 0 0 1 0 16z" fill="#7e8488"/><path d="m368 384h-80a8 8 0 0 1 0-16h80a8 8 0 0 1 0 16z" fill="#7e8488"/><path d="m432 384h-32a8 8 0 0 1 0-16h32a8 8 0 0 1 0 16z" fill="#7e8488"/><path d="m432 320h-64a8 8 0 0 1 0-16h64a8 8 0 0 1 0 16z" fill="#7e8488"/><circle cx="320" cy="264" r="8"/><g fill="#7e8488"><circle cx="432" cy="344" r="8"/><path d="m336 320h-16a8 8 0 0 1 0-16h16a8 8 0 0 1 0 16z"/><path d="m400 128h-112a8 8 0 0 1 0-16h112a8 8 0 0 1 0 16z"/><path d="m368 160h-80a8 8 0 0 1 0-16h80a8 8 0 0 1 0 16z"/><path d="m432 160h-32a8 8 0 0 1 0-16h32a8 8 0 0 1 0 16z"/><path d="m432 96h-64a8 8 0 0 1 0-16h64a8 8 0 0 1 0 16z"/><circle cx="432" cy="120" r="8"/><path d="m336 96h-16a8 8 0 0 1 0-16h16a8 8 0 0 1 0 16z"/></g><path d="m360 224a8 8 0 0 1 -8-8v-16a8 8 0 0 1 16 0v16a8 8 0 0 1 -8 8z" fill="#c2c5c6"/><path d="m48 88h240v400h-240z" fill="#2b70a8"/><path d="m288 88h-64v-64z" fill="#11456e"/><path d="m104 184h32a0 0 0 0 1 0 0v48a16 16 0 0 1 -16 16 16 16 0 0 1 -16-16v-48a0 0 0 0 1 0 0z" fill="#ce3536"/><path d="m136 152v48h-32a16 16 0 0 1 -16-16v-16a16 16 0 0 1 16-16z" fill="#e74444"/><path d="m200 136v80l-64-16v-48z" fill="#e74444"/><path d="m248 184h-16a8 8 0 0 1 0-16h16a8 8 0 0 1 0 16z" fill="#e74444"/><path d="m232.006 152a8 8 0 0 1 -3.584-15.157l16-8a8 8 0 1 1 7.156 14.31l-16 8a7.973 7.973 0 0 1 -3.572.847z" fill="#e74444"/><path d="m247.994 224a7.973 7.973 0 0 1 -3.572-.847l-16-8a8 8 0 1 1 7.156-14.31l16 8a8 8 0 0 1 -3.584 15.157z" fill="#e74444"/><path d="m88 296h32v32h-32z" fill="#fdd14b"/><path d="m88 360h32v32h-32z" fill="#fdd14b"/><path d="m248 304h-96a8 8 0 0 1 0-16h96a8 8 0 0 1 0 16z" fill="#7e8488"/><path d="m168 336h-16a8 8 0 0 1 0-16h16a8 8 0 0 1 0 16z" fill="#7e8488"/><path d="m248 368h-96a8 8 0 0 1 0-16h96a8 8 0 0 1 0 16z" fill="#7e8488"/><path d="m168 400h-16a8 8 0 0 1 0-16h16a8 8 0 0 1 0 16z" fill="#7e8488"/><path d="m88 424h32v32h-32z" fill="#fdd14b"/><path d="m248 432h-96a8 8 0 0 1 0-16h96a8 8 0 0 1 0 16z" fill="#7e8488"/><path d="m168 464h-16a8 8 0 0 1 0-16h16a8 8 0 0 1 0 16z" fill="#7e8488"/><path d="m152 148v56l-16-4h-8v-48h8z" fill="#fdd14b"/><path d="m48 88h56l-56 64z" fill="#fdd14b"/><path d="m408 264a48 48 0 0 0 -96 0z" fill="#d9dbdd"/><path d="m424 272h-128a8 8 0 0 1 0-16h128a8 8 0 0 1 0 16z" fill="#c2c5c6"/></svg>