<svg height="512" viewBox="0 0 64 64" width="512" xmlns="http://www.w3.org/2000/svg"><g id="calulator-file-money"><path d="m53 12v45h-42v-54h33v9z" fill="#bdfdff"/><path d="m53 12h-9v-9z" fill="#00e7f0"/><path d="m45 57h14v4h-14z" fill="#ffda44"/><path d="m43 53h14v4h-14z" fill="#ffd422"/><path d="m45 49h14v4h-14z" fill="#ffda44"/><path d="m42 45h14v4h-14z" fill="#ffd422"/><path d="m49 45a7 7 0 1 1 7-7 6.995 6.995 0 0 1 -7 7z" fill="#ffda44"/><rect fill="#787680" height="38" rx="2" width="29" x="6" y="23"/><path d="m27 36h5v5h-5z" fill="#ff5023"/><path d="m27 44h5v13h-5z" fill="#ffda44"/><g fill="#ff5023"><path d="m18 52h5v5h-5z"/><path d="m9 36h5v5h-5z"/><path d="m9 44h5v5h-5z"/><path d="m9 52h5v5h-5z"/><path d="m18 44h5v5h-5z"/><path d="m18 36h5v5h-5z"/></g><path d="m9 26h23v6h-23z" fill="#2488ff"/><path d="m14 6h4v2h-4z" fill="#1a6fb0"/><path d="m21 6h8v2h-8z" fill="#1a6fb0"/><path d="m14 10h7v2h-7z" fill="#1a6fb0"/><path d="m24 10h6v2h-6z" fill="#1a6fb0"/><path d="m48.5 36h1a.5.5 0 0 1 .5.5h2a2.5 2.5 0 0 0 -2-2.449v-1.051h-2v1.051a2.5 2.5 0 0 0 .5 4.949h1a.5.5 0 0 1 0 1h-1a.5.5 0 0 1 -.5-.5h-2a2.5 2.5 0 0 0 2 2.449v1.051h2v-1.051a2.5 2.5 0 0 0 -.5-4.949h-1a.5.5 0 0 1 0-1z" fill="#ff9835"/><path d="m45 12h8v1h-8z" fill="#00d7df"/><path d="m42 45h14v1h-14z" fill="#ffeb99"/><path d="m45 49h14v1h-14z" fill="#ffeb99"/><path d="m43 53h14v1h-14z" fill="#ffeb99"/><path d="m45 57h14v1h-14z" fill="#ffeb99"/></g></svg>